<svg width="11" height="8" viewBox="0 0 11 8" version="1.1" xmlns="http://www.w3.org/2000/svg" xmlns:xlink="http://www.w3.org/1999/xlink">
<title>chevron</title>
<desc>Created using Figma</desc>
<g id="Canvas" transform="translate(-6115 -3680)">
<g id="chevron">
<use xlink:href="#path0_fill" transform="matrix(-5.96168e-17 -1 -1 6.28916e-17 6125 3687)" style="fill:var(--color,black)"/>/>
<!--<use xlink:href="#path1_stroke" transform="matrix(-5.96168e-17 -1 -1 6.28916e-17 6125 3687)" fill="#3AC162"/>-->
</g>
</g>
<defs>
<path id="path0_fill" fill-rule="evenodd" d="M 5.7834 7.93194C 6.06434 8.16951 6.07317 8.56241 5.80298 8.8096C 5.66445 8.93622 5.47933 9 5.29403 9C 5.11791 9 4.94179 8.94259 4.80485 8.82683L 0.216533 4.9475C 0.0781778 4.8305 0 4.66881 0 4.49998C 0 4.33131 0.0781778 4.16962 0.216533 4.05262L 4.80485 0.173292C 5.0858 -0.0642776 5.5328 -0.0566741 5.80298 0.190517C 6.07317 0.437707 6.06434 0.830605 5.7834 1.06818L 1.72432 4.49998L 5.7834 7.93194Z"/>
<path id="path1_stroke" d="M 5.7834 7.93194L 5.88025 7.81741L 5.88024 7.8174L 5.7834 7.93194ZM 5.80298 8.8096L 5.90418 8.92032L 5.90424 8.92027L 5.80298 8.8096ZM 4.80485 8.82683L 4.708 8.94137L 4.70801 8.94138L 4.80485 8.82683ZM 0.216533 4.9475L 0.119675 5.06204L 0.119687 5.06205L 0.216533 4.9475ZM 0.216533 4.05262L 0.119687 3.93807L 0.119675 3.93808L 0.216533 4.05262ZM 4.80485 0.173292L 4.9017 0.287838L 4.9017 0.287831L 4.80485 0.173292ZM 5.7834 1.06818L 5.88024 1.18272L 5.88025 1.18271L 5.7834 1.06818ZM 1.72432 4.49998L 1.62748 4.38544L 1.492 4.49998L 1.62748 4.61453L 1.72432 4.49998ZM 5.68654 8.04648C 5.89909 8.22621 5.90456 8.51337 5.70173 8.69893L 5.90424 8.92027C 6.24177 8.61146 6.2296 8.11282 5.88025 7.81741L 5.68654 8.04648ZM 5.70179 8.69888C 5.59387 8.79752 5.4461 8.85 5.29403 8.85L 5.29403 9.15C 5.51256 9.15 5.73504 9.07492 5.90418 8.92032L 5.70179 8.69888ZM 5.29403 8.85C 5.14961 8.85 5.00881 8.80283 4.90168 8.71227L 4.70801 8.94138C 4.87477 9.08234 5.08622 9.15 5.29403 9.15L 5.29403 8.85ZM 4.9017 8.71228L 0.313379 4.83295L 0.119687 5.06205L 4.708 8.94137L 4.9017 8.71228ZM 0.313391 4.83296C 0.205971 4.74213 0.15 4.62117 0.15 4.49998L -0.15 4.49998C -0.15 4.71645 -0.0496156 4.91888 0.119675 5.06204L 0.313391 4.83296ZM 0.15 4.49998C 0.15 4.37897 0.205954 4.25801 0.313391 4.16715L 0.119675 3.93808C -0.0495982 4.08123 -0.15 4.28365 -0.15 4.49998L 0.15 4.49998ZM 0.313379 4.16716L 4.9017 0.287838L 4.708 0.0587463L 0.119687 3.93807L 0.313379 4.16716ZM 4.9017 0.287831C 5.12552 0.0985734 5.48768 0.105346 5.70173 0.301187L 5.90424 0.0798464C 5.57793 -0.218694 5.04607 -0.227129 4.70799 0.0587535L 4.9017 0.287831ZM 5.70173 0.301187C 5.90456 0.486753 5.89909 0.773906 5.68654 0.953636L 5.88025 1.18271C 6.2296 0.887304 6.24177 0.388661 5.90424 0.0798464L 5.70173 0.301187ZM 5.68655 0.953628L 1.62748 4.38544L 1.82117 4.61453L 5.88024 1.18272L 5.68655 0.953628ZM 1.62748 4.61453L 5.68655 8.04649L 5.88024 7.8174L 1.82117 4.38544L 1.62748 4.61453Z"/>
</defs>
</svg>
