<svg width="15" height="15" viewBox="0 0 15 15" version="1.1" xmlns="http://www.w3.org/2000/svg" xmlns:xlink="http://www.w3.org/1999/xlink">
<title>Rectangle</title>
<desc>Created using Figma</desc>
<g id="Canvas" transform="translate(21645 -7193)">
<g id="Rectangle">
<use xlink:href="#path0_stroke" transform="matrix(0.707107 -0.707107 -0.707107 -0.707107 -21637.3 7206.31)" fill="#9498B5" style="fill:var(--color,black)"/>
</g>
</g>
<defs>
<path id="path0_stroke" d="M 0 -1C -0.552285 -1 -1 -0.552285 -1 0C -1 0.552285 -0.552285 1 0 1L 0 -1ZM 7 8C 7 8.55229 7.44772 9 8 9C 8.55229 9 9 8.55229 9 8L 7 8ZM 0 1L 7 1L 7 -1L 0 -1L 0 1ZM 7 1L 7 8L 9 8L 9 1L 7 1ZM 7 1L 9 1C 9 -0.10457 8.10457 -1 7 -1L 7 1Z"/>
</defs>
</svg>
