<svg width="22" height="24" viewBox="0 0 22 24" fill="none" xmlns="http://www.w3.org/2000/svg">
<path d="M5.01667 9.91667C7.7 9.91667 10.0333 7.7 10.0333 4.9C10.0333 2.1 7.7 -5.5631e-08 5.01667 -5.5631e-08C2.33333 -5.5631e-08 -2.22524e-07 2.21667 -2.22524e-07 5.01667C-2.22524e-07 7.81667 2.33333 9.91667 5.01667 9.91667ZM5.01667 2.33333C6.41667 2.33333 7.7 3.5 7.7 5.01667C7.7 6.53333 6.53333 7.7 5.01667 7.7C3.5 7.7 2.33333 6.53333 2.33333 5.01667C2.33333 3.5 3.61667 2.33333 5.01667 2.33333Z" transform="translate(5.98438 0.683105)" fill="#797E90"/>
<path d="M19.9425 7.46667C18.6592 3.03333 14.5759 -2.22524e-07 10.0259 -2.22524e-07C5.47588 -2.22524e-07 1.39254 3.03333 0.10921 7.46667C-0.124124 8.63333 -0.00745699 9.68333 0.692543 10.6167C1.39254 11.55 2.44254 12.0167 3.49254 12.0167H16.4425C17.6092 12.0167 18.5425 11.55 19.2425 10.6167C19.9425 9.68333 20.1759 8.63333 19.9425 7.46667ZM17.4925 9.21667C17.2592 9.56667 16.9092 9.68333 16.5592 9.68333H3.49254C3.14254 9.68333 2.79254 9.56667 2.55921 9.21667C2.32588 8.86667 2.32588 8.51667 2.32588 8.16667C3.25921 4.78333 6.40921 2.45 10.0259 2.45C13.6425 2.45 16.6759 4.78333 17.7259 8.16667C17.7259 8.51667 17.7259 8.86667 17.4925 9.21667Z" transform="translate(0.974609 11.6499)" fill="#797E90"/>
</svg>
