<svg width="22" height="32" viewBox="0 0 22 32" fill="none" xmlns="http://www.w3.org/2000/svg">
<path d="M20.1 0.156078C19.5 -0.143922 18.9 0.00607766 18.45 0.456078L16.5 2.40608L14.55 0.456078C13.95 -0.143922 13.05 -0.143922 12.45 0.456078L10.5 2.40608L8.55 0.456078C7.95 -0.143922 7.05001 -0.143922 6.45001 0.456078L4.5 2.40608L2.55 0.456078C2.1 0.00607766 1.5 -0.143922 0.899998 0.156078C0.299998 0.306078 0 0.906078 0 1.50608V28.5061C0 29.1061 0.299998 29.7061 0.899998 29.8561C1.5 30.0061 2.1 30.0061 2.55 29.5561L4.5 27.6061L6.45001 29.5561C7.05001 30.1561 7.95 30.1561 8.55 29.5561L10.5 27.6061L12.45 29.5561C13.05 30.1561 13.95 30.1561 14.55 29.5561L16.5 27.6061L18.45 29.5561C18.75 29.8561 19.05 30.0061 19.5 30.0061C19.65 30.0061 19.95 30.0061 20.1 29.8561C20.7 29.5561 21 29.1061 21 28.5061V1.50608C21 0.906078 20.7 0.306078 20.1 0.156078ZM18 24.9061L17.55 24.4561C16.95 23.8561 16.05 23.8561 15.45 24.4561L13.5 26.4061L11.55 24.4561C11.25 24.1561 10.8 24.0061 10.5 24.0061C10.2 24.0061 9.75001 24.1561 9.45001 24.4561L7.5 26.4061L5.55 24.4561C4.95 23.8561 4.05001 23.8561 3.45001 24.4561L3 24.9061V5.10608L3.45001 5.55608C4.05001 6.15608 4.95 6.15608 5.55 5.55608L7.5 3.60608L9.45001 5.55608C10.05 6.15608 10.95 6.15608 11.55 5.55608L13.5 3.60608L15.45 5.55608C16.05 6.15608 16.95 6.15608 17.55 5.55608L18 5.10608V24.9061Z" transform="translate(0.496094 0.995117)" fill="#8C0B51"/>
<path d="M9.75 0H0.75C0.3 0 0 0.3 0 0.75C0 1.2 0.3 1.5 0.75 1.5H9.75C10.2 1.5 10.5 1.2 10.5 0.75C10.5 0.3 10.2 0 9.75 0Z" transform="translate(5.75391 10.7515)" fill="#8C0B51"/>
<path d="M9.75 0H0.75C0.3 0 0 0.3 0 0.75C0 1.2 0.3 1.5 0.75 1.5H9.75C10.2 1.5 10.5 1.2 10.5 0.75C10.5 0.3 10.2 0 9.75 0Z" transform="translate(5.75391 13.75)" fill="#8C0B51"/>
<path d="M9.75 0H0.75C0.3 0 0 0.3 0 0.75C0 1.2 0.3 1.5 0.75 1.5H9.75C10.2 1.5 10.5 1.2 10.5 0.75C10.5 0.3 10.2 0 9.75 0Z" transform="translate(5.75391 16.749)" fill="#8C0B51"/>
<path d="M9.75 0H0.75C0.3 0 0 0.3 0 0.75C0 1.2 0.3 1.5 0.75 1.5H9.75C10.2 1.5 10.5 1.2 10.5 0.75C10.5 0.3 10.2 0 9.75 0Z" transform="translate(5.75391 19.7515)" fill="#8C0B51"/>
</svg>
