<svg width="20" height="14" viewBox="0 0 20 14" fill="none" xmlns="http://www.w3.org/2000/svg">
<path d="M17.5 0H1.16667C0.466667 0 0 0.466667 0 1.16667C0 1.86667 0.466667 2.33333 1.16667 2.33333H17.5C18.2 2.33333 18.6667 1.86667 18.6667 1.16667C18.6667 0.466667 18.2 0 17.5 0Z" transform="translate(0.666016 5.8335)" fill="#797E90"/>
<path d="M1.16667 2.33333H17.5C18.2 2.33333 18.6667 1.86667 18.6667 1.16667C18.6667 0.466667 18.2 0 17.5 0H1.16667C0.466667 0 0 0.466667 0 1.16667C0 1.86667 0.466667 2.33333 1.16667 2.33333Z" transform="translate(0.666016)" fill="#797E90"/>
<path d="M14 0H1.16667C0.466667 0 0 0.466667 0 1.16667C0 1.86667 0.466667 2.33333 1.16667 2.33333H14C14.7 2.33333 15.1667 1.86667 15.1667 1.16667C15.1667 0.466667 14.7 0 14 0Z" transform="translate(0.666016 11.6665)" fill="#797E90"/>
</svg>
