<svg width="24" height="18" viewBox="0 0 24 18" fill="none" xmlns="http://www.w3.org/2000/svg">
<path d="M1.28333 2.56666C1.9921 2.56666 2.56667 1.99211 2.56667 1.28334C2.56667 0.574575 1.9921 0 1.28333 0C0.574568 0 -7.12077e-06 0.574575 -7.12077e-06 1.28334C-7.12077e-06 1.99211 0.574568 2.56666 1.28333 2.56666Z" transform="translate(5.4668 6.83301)" fill="#CDCFD8"/>
<path d="M1.28333 2.56666C1.9921 2.56666 2.56667 1.99211 2.56667 1.28334C2.56667 0.574575 1.9921 0 1.28333 0C0.574568 0 -7.12077e-06 0.574575 -7.12077e-06 1.28334C-7.12077e-06 1.99211 0.574568 2.56666 1.28333 2.56666Z" transform="translate(10.7168 6.83301)" fill="#CDCFD8"/>
<path d="M1.28333 2.56666C1.9921 2.56666 2.56667 1.99211 2.56667 1.28334C2.56667 0.574575 1.9921 0 1.28333 0C0.574568 0 -7.12077e-06 0.574575 -7.12077e-06 1.28334C-7.12077e-06 1.99211 0.574568 2.56666 1.28333 2.56666Z" transform="translate(15.9668 6.83301)" fill="#CDCFD8"/>
<path d="M11.0833 0C5.01667 0 0 3.38333 0 7.58333C0 9.68333 1.28333 11.6667 3.5 13.0667V16.6833L7.46666 14.7C8.63333 14.9333 9.91667 15.1667 11.0833 15.1667C17.15 15.1667 22.1667 11.7833 22.1667 7.58333C22.1667 3.38333 17.15 0 11.0833 0ZM11.0833 14C9.91667 14 8.63333 13.8833 7.46666 13.5333H7.23333L4.66667 14.8167V12.4833L4.43334 12.3667C2.33334 11.2 1.16667 9.45001 1.16667 7.70001C1.16667 4.20001 5.6 1.28334 11.0833 1.28334C16.5667 1.28334 21 4.20001 21 7.70001C21 11.2 16.5667 14 11.0833 14Z" transform="translate(0.916016 0.416504)" fill="#CDCFD8"/>
</svg>
