<svg width="20" height="20" viewBox="0 0 20 20" fill="none" xmlns="http://www.w3.org/2000/svg">
<path d="M17.5 4.66667H1.16667C0.466667 4.66667 0 4.2 0 3.5V1.16667C0 0.466667 0.466667 0 1.16667 0H17.5C18.2 0 18.6667 0.466667 18.6667 1.16667V3.5C18.6667 4.2 18.2 4.66667 17.5 4.66667Z" transform="translate(0.666016 0.666504)" fill="#797E90" style="fill:var(--color,#797E90)"/>
<path d="M17.5 4.66667H1.16667C0.466667 4.66667 0 4.2 0 3.5V1.16667C0 0.466667 0.466667 0 1.16667 0H17.5C18.2 0 18.6667 0.466667 18.6667 1.16667V3.5C18.6667 4.2 18.2 4.66667 17.5 4.66667Z" transform="translate(0.666016 7.6665)" fill="#797E90" style="fill:var(--color,#797E90)"/>
<path d="M17.5 4.66667H1.16667C0.466667 4.66667 0 4.2 0 3.5V1.16667C0 0.466667 0.466667 0 1.16667 0H17.5C18.2 0 18.6667 0.466667 18.6667 1.16667V3.5C18.6667 4.2 18.2 4.66667 17.5 4.66667Z" transform="translate(0.666016 14.6665)" fill="#797E90" style="fill:var(--color,#797E90)"/>
</svg>
