<svg width="23" height="21" viewBox="0 0 23 21" fill="none" xmlns="http://www.w3.org/2000/svg">
<path d="M21.8167 7.38262C21.4667 6.91596 20.8833 6.68262 20.3 6.68262H15.5167L17.0333 2.71596C17.2666 2.13262 17.15 1.43262 16.8 0.849284C16.1 -0.0840496 14.5833 -0.317386 13.7667 0.49928L7.69999 6.56596H6.53332H5.36665H1.75C0.816666 6.56596 0 7.38263 0 8.31596V17.9993C0 18.9326 0.816666 19.7493 1.75 19.7493H5.36665H6.53332H18.2C19.1333 19.7493 19.8333 19.166 20.0667 18.2326L22.1667 8.89929C22.2833 8.43263 22.1667 7.84929 21.8167 7.38262ZM5.36665 18.6993H1.75C1.4 18.6993 1.16667 18.466 1.16667 18.116V8.43262C1.16667 8.08262 1.4 7.84928 1.75 7.84928H5.36665V18.6993ZM19.0167 18.116C18.9 18.466 18.6667 18.6993 18.3167 18.6993H6.64999V7.84928H8.28332L14.7 1.43262C15.05 1.08262 15.6333 1.19929 15.9833 1.54929C16.1 1.78262 16.2167 2.01595 16.1 2.36595L14.5833 6.33261C14.4667 6.68261 14.4666 7.14929 14.7 7.38262C14.9333 7.61596 15.2833 7.84928 15.6333 7.84928H20.4167C20.65 7.84928 20.8833 7.96595 21 8.08261C21.1167 8.31595 21.2333 8.43261 21.1166 8.66595L19.0167 18.116Z" transform="translate(0.683594 0.884277)" fill="#8E0B56"/>
</svg>
