<svg width="16" height="18" viewBox="0 0 16 18" fill="none" xmlns="http://www.w3.org/2000/svg">
<path d="M15.2469 5.775C14.8094 5.25 14.1094 4.9 13.4094 4.9H11.9219L11.4844 2.1C11.3094 0.875001 10.3469 0 9.12188 0H6.67187C5.44687 0 4.39688 0.875001 4.30938 2.1L3.87188 4.9H2.38437C1.68437 4.9 0.984374 5.25 0.546874 5.775C0.109374 6.3 -0.0656249 7 0.0218751 7.7875L1.24688 14.7C1.42188 15.8375 2.47187 16.7125 3.60937 16.7125H12.0969C13.2344 16.7125 14.2844 15.8375 14.4594 14.7L15.6844 7.7875C15.9469 7.0875 15.6844 6.3 15.2469 5.775ZM5.18438 2.1875C5.27188 1.4 5.97187 0.875 6.67187 0.875H9.12188C9.90938 0.875 10.5219 1.4875 10.6094 2.1875L11.0469 4.9H4.74688L5.18438 2.1875Z" transform="translate(0.0976562 0.687012)" fill="#A2A7B5"/>
</svg>
