<svg width="32" height="24" viewBox="0 0 32 24" version="1.1" xmlns="http://www.w3.org/2000/svg" xmlns:xlink="http://www.w3.org/1999/xlink">
<title>Group</title>
<desc>Created using Figma</desc>
<g id="Canvas" transform="translate(20958 -12210)">
<g id="Group">
<g id="Vector">
<use xlink:href="#path0_fill" transform="translate(-20958 12210)" fill="#FFFFFF"/>
</g>
<g id="Vector">
<use xlink:href="#path1_fill" transform="translate(-20954.3 12213.3)" fill="#FFFFFF"/>
</g>
</g>
</g>
<defs>
<path id="path0_fill" d="M 28.0935 0L 3.91309 0C 1.7546 0 0 1.7292 0 3.85644L 0 20.1436C 0 22.2708 1.7546 24 3.91309 24L 28.0869 24C 30.2454 24 32 22.2708 32 20.1436L 32 3.86297C 32.0066 1.73573 30.252 0 28.0935 0ZM 30.2189 20.1436C 30.2189 21.2985 29.2654 22.2382 28.0935 22.2382L 3.91309 22.2382C 2.74115 22.2382 1.78771 21.2985 1.78771 20.1436L 1.78771 3.86297C 1.78771 2.70799 2.74115 1.76835 3.91309 1.76835L 28.0869 1.76835C 29.2588 1.76835 30.2123 2.70799 30.2123 3.86297L 30.2123 20.1436L 30.2189 20.1436Z"/>
<path id="path1_fill" d="M 16.4898 8.45988L 24.316 1.54307C 24.6802 1.21681 24.7133 0.662161 24.3822 0.296745C 24.0511 -0.0621457 23.4883 -0.0947721 23.1176 0.231492L 12.3251 9.77799L 10.2196 7.9248C 10.213 7.91828 10.2063 7.91175 10.2063 7.90523C 10.16 7.85955 10.1136 7.8204 10.0607 7.78125L 1.49291 0.224967C 1.12213 -0.101297 0.559329 -0.068671 0.228272 0.296745C -0.102785 0.662161 -0.0696796 1.21681 0.301104 1.54307L 8.21999 8.51861L 0.33421 15.7943C -0.0233316 16.1271 -0.0431949 16.6817 0.294483 17.0406C 0.473254 17.2233 0.711615 17.3212 0.949976 17.3212C 1.16847 17.3212 1.38697 17.2429 1.55912 17.0863L 9.56408 9.70621L 11.7358 11.6181C 11.908 11.7682 12.1198 11.84 12.3317 11.84C 12.5436 11.84 12.7621 11.7617 12.9276 11.6116L 15.1589 9.64095L 23.1176 17.0928C 23.2897 17.256 23.5148 17.3343 23.7333 17.3343C 23.9717 17.3343 24.2034 17.2429 24.3822 17.0602C 24.7199 16.7078 24.7066 16.1467 24.3491 15.8139L 16.4898 8.45988Z"/>
</defs>
</svg>
