<svg width="20" height="15" viewBox="0 0 20 15" fill="none" xmlns="http://www.w3.org/2000/svg">
<path d="M18.1 5.20001L15.4 2.9C14.9 2.5 14.4 2.3 13.8 2.3H13V-6.10352e-06H0V9.99999H12H13H17.5C18.3 9.99999 19 9.29999 19 8.49999V7.1C19 6.4 18.7 5.70001 18.1 5.20001ZM12 9.1H1V1.1H12V2.4V9.1ZM18 8.6C18 8.9 17.8 9.1 17.5 9.1H13V3.3H13.8C14.2 3.3 14.5 3.40001 14.8 3.70001L17.5 5.99999C17.8 6.29999 18 6.7 18 7.1V8.6Z" transform="translate(0.5 0.399902)" fill="#8D044E"/>
<path d="M1.5 3C2.32843 3 3 2.32843 3 1.5C3 0.671573 2.32843 0 1.5 0C0.671573 0 0 0.671573 0 1.5C0 2.32843 0.671573 3 1.5 3Z" transform="translate(2 12)" fill="#8D044E"/>
<path d="M1.5 3C2.32843 3 3 2.32843 3 1.5C3 0.671573 2.32843 0 1.5 0C0.671573 0 0 0.671573 0 1.5C0 2.32843 0.671573 3 1.5 3Z" transform="translate(14 12)" fill="#8D044E"/>
</svg>
