<svg width="28" height="29" viewBox="0 0 28 29" fill="none" xmlns="http://www.w3.org/2000/svg">
<path d="M3 6C4.65685 6 6 4.65685 6 3C6 1.34315 4.65685 0 3 0C1.34315 0 0 1.34315 0 3C0 4.65685 1.34315 6 3 6Z" transform="translate(21.4961 22.499)" fill="#8C0B51"/>
<path d="M23.25 5.25C23.25 2.25 20.85 0 18 0C17.1 0 16.05 0.3 15.3 0.75C14.1 0.3 12.9 0 11.7 0C6.6 0 2.55 4.05 2.55 9.15C2.55 9.6 2.55 10.2 2.7 10.65C1.05 11.4 0 13.05 0 14.85C0 17.4 2.1 19.5 4.65 19.5C6.15 19.5 7.5 18.75 8.4 17.7C9.45 18.15 10.5 18.3 11.7 18.3C16.5 18.3 20.4 14.55 20.85 9.9C22.2 8.85 23.25 7.2 23.25 5.25ZM18.75 7.5C18.15 7.65 17.7 8.55 17.7 9.15C17.7 12.45 15 15.3 11.55 15.3C10.5 15.3 9.3 15 8.4 14.4C7.95 14.1 7.5 14.1 7.05 14.25C6.6 14.4 6.3 14.85 6.15 15.3C6 16.05 5.25 16.5 4.5 16.5C3.6 16.5 2.85 15.75 2.85 14.85C2.85 13.95 3.6 13.2 4.35 13.2C4.8 13.2 5.25 12.9 5.55 12.6C5.85 12.15 5.85 11.7 5.7 11.25C5.4 10.65 5.4 9.9 5.4 9.15C5.4 5.85 8.1 3 11.55 3C12.6 3 13.65 3.3 14.55 3.75C15.15 4.05 15.9 4.05 16.35 3.6C16.65 3.3 17.1 3 17.85 3C19.05 3 20.1 4.05 20.1 5.25C20.25 6.3 19.65 7.2 18.75 7.5Z" transform="translate(2.75 6)" fill="#8C0B51"/>
<path d="M1.5 3C2.32843 3 3 2.32843 3 1.5C3 0.671573 2.32843 0 1.5 0C0.671573 0 0 0.671573 0 1.5C0 2.32843 0.671573 3 1.5 3Z" transform="translate(0.5 7.50098)" fill="#8C0B51"/>
<path d="M3.20781 5.15781C4.55781 4.85781 5.45781 3.35781 5.15781 2.00781C4.85781 0.657807 3.35781 -0.242192 2.00781 0.0578081C0.657807 0.357808 -0.242192 1.85781 0.0578081 3.20781C0.357808 4.55781 1.70781 5.45781 3.20781 5.15781Z" transform="translate(4.19141 0.691895)" fill="#8C0B51"/>
</svg>
