<svg width="14" height="14" viewBox="0 0 14 14" version="1.1" xmlns="http://www.w3.org/2000/svg" xmlns:xlink="http://www.w3.org/1999/xlink">
<title>Vector</title>
<desc>Created using Figma</desc>
<g id="Canvas" transform="translate(21650 -7027)">
<g id="Vector">
<use xlink:href="#path0_fill" transform="translate(-21650 7027)" fill="#FFFFFF"/>
</g>
</g>
<defs>
<path id="path0_fill" d="M 13.9933 11.0487C 14.023 11.2761 13.9537 11.4739 13.7858 11.6419L 11.8147 13.5995C 11.7257 13.6983 11.6097 13.7825 11.4664 13.8516C 11.3231 13.9208 11.1824 13.9653 11.0441 13.9851C 11.0342 13.9851 11.0045 13.9876 10.9551 13.9926C 10.9057 13.9975 10.8415 14 10.7625 14C 10.5747 14 10.2708 13.9679 9.85091 13.9036C 9.43098 13.8393 8.91722 13.6811 8.30961 13.429C 7.70186 13.1769 7.01272 12.7987 6.24206 12.2945C 5.4714 11.7903 4.65129 11.0982 3.7818 10.2182C 3.09017 9.536 2.51709 8.88346 2.06259 8.2606C 1.60808 7.6377 1.2425 7.06178 0.965848 6.53283C 0.689168 6.00387 0.481677 5.52435 0.343349 5.09427C 0.205021 4.66419 0.111156 4.29342 0.0617534 3.98198C 0.0123507 3.67054 -0.00741041 3.42584 0.00247014 3.24788C 0.0123507 3.06991 0.017291 2.97104 0.017291 2.95127C 0.0370521 2.81285 0.0815145 2.67196 0.150678 2.5286C 0.219842 2.38524 0.303827 2.26906 0.402632 2.18008L 2.3738 0.207627C 2.51213 0.0692089 2.67022 -1.55994e-10 2.84807 -1.55994e-10C 2.97652 -1.55994e-10 3.09014 0.0370762 3.18895 0.111229C 3.28775 0.185381 3.37174 0.276836 3.4409 0.385593L 5.02673 3.39618C 5.11565 3.55437 5.14036 3.72739 5.10083 3.91525C 5.06131 4.1031 4.97733 4.26129 4.84888 4.38982L 4.12266 5.11652C 4.1029 5.13629 4.08561 5.16842 4.07079 5.21291C 4.05597 5.25741 4.04855 5.29448 4.04855 5.32414C 4.08808 5.53177 4.177 5.76906 4.31533 6.03601C 4.4339 6.27329 4.61669 6.56249 4.8637 6.90359C 5.11071 7.24469 5.46147 7.63767 5.91598 8.08259C 6.3606 8.53744 6.75583 8.89085 7.10164 9.14302C 7.44739 9.39504 7.73649 9.58049 7.96869 9.69914C 8.20088 9.81778 8.37873 9.88946 8.50221 9.91411L 8.68742 9.95121C 8.70718 9.95121 8.73937 9.94377 8.78378 9.92896C 8.82825 9.91411 8.86036 9.89683 8.88014 9.87703L 9.72491 9.01686C 9.90285 8.85869 10.1102 8.7796 10.3474 8.7796C 10.5154 8.7796 10.6487 8.80923 10.7475 8.86858L 10.7623 8.86858L 13.6227 10.5593C 13.8303 10.6879 13.9538 10.851 13.9933 11.0487Z"/>
</defs>
</svg>
