<svg width="29" height="28" viewBox="0 0 29 28" version="1.1" xmlns="http://www.w3.org/2000/svg" xmlns:xlink="http://www.w3.org/1999/xlink">
<title>Vector</title>
<desc>Created using Figma</desc>
<g id="Canvas" transform="translate(20283 -6979)">
<g id="Vector">
<use xlink:href="#path0_fill" transform="translate(-20283 6979)" fill="#C3C9D7"/>
</g>
</g>
<defs>
<path id="path0_fill" d="M 28.0068 4.34047L 7.01153 4.34047L 5.80212 1.51298C 5.67834 1.22359 5.42338 1.01014 5.11566 0.938072L 1.2208 0.0266041C 0.686888 -0.0987287 0.152181 0.230803 0.0266475 0.761927C -0.0990445 1.29297 0.23195 1.82473 0.765942 1.94966L 4.17123 2.74671L 12.8889 23.129C 12.6189 23.6032 12.4638 24.1506 12.4638 24.7334C 12.4638 26.5346 13.9371 28 15.748 28C 17.5589 28 19.0323 26.5347 19.0323 24.7334C 19.0323 24.2809 18.9392 23.8497 18.7713 23.4575L 22.3475 23.4575C 22.1796 23.8496 22.0865 24.2808 22.0865 24.7334C 22.0865 26.5346 23.5599 28 25.3709 28C 27.1818 28 28.655 26.5347 28.655 24.7334C 28.655 22.932 27.1818 21.4667 25.3709 21.4667L 14.343 21.4819L 12.9828 18.3017L 28.0069 18.3017C 28.5554 18.3017 29 17.8594 29 17.3139L 29 5.32828C 28.9999 4.78277 28.5553 4.34047 28.0068 4.34047ZM 25.3729 23.4433C 26.0896 23.4433 26.6706 24.0211 26.6706 24.734C 26.6706 25.4468 26.0897 26.0247 25.3729 26.0247C 24.6562 26.0247 24.0752 25.4468 24.0752 24.734C 24.0752 24.0211 24.6562 23.4433 25.3729 23.4433ZM 15.753 23.4433C 16.4697 23.4433 17.0508 24.0211 17.0508 24.734C 17.0508 25.4468 16.4697 26.0247 15.753 26.0247C 15.0363 26.0247 14.4553 25.4468 14.4553 24.734C 14.4553 24.0211 15.0364 23.4433 15.753 23.4433ZM 27.0136 10.3333C 27.0136 10.6055 27.0136 11.0303 27.0136 11.0303C 27.0136 11.0303 27.0136 10.8494 27.0136 11.3949C 27.0136 11.9404 27.0136 11.8788 27.0136 12.3089L 27.0136 16.3261L 12.1379 16.3261L 7.85642 6.31608L 27.0136 6.31608C 27.0136 6.31608 27.0136 8.76447 27.0136 10.3333Z"/>
</defs>
</svg>
