<svg width="31" height="22" viewBox="0 0 31 22" fill="none" xmlns="http://www.w3.org/2000/svg">
<path d="M28.8 4.8L24.3 1.05C23.55 0.3 22.5 0 21.45 0H4.5C1.95 0 0 2.1 0 4.8V16.2C0 18.9 1.95 21 4.5 21H21.45C22.5 21 23.55 20.7 24.3 19.95L28.8 16.2C29.55 15.6 30 14.7 30 13.8V7.2C30 6.3 29.55 5.4 28.8 4.8ZM27 13.8C27 13.8 27 13.95 27 13.8L22.35 17.7C22.05 17.85 21.75 18 21.45 18H4.5C3.6 18 3 17.25 3 16.2V4.8C3 3.75 3.6 3 4.5 3H21.45C21.75 3 22.2 3.15 22.35 3.3L26.85 7.05C26.85 7.05 26.85 7.05 26.85 7.2V13.8H27Z" transform="translate(0.00195312 0.500488)" fill="#8C0B51"/>
<path d="M2.25 0C1.05 0 0 1.05 0 2.25C0 3.45 1.05 4.5 2.25 4.5C3.45 4.5 4.5 3.45 4.5 2.25C4.5 1.05 3.45 0 2.25 0ZM2.25 3C1.8 3 1.5 2.7 1.5 2.25C1.5 1.8 1.8 1.5 2.25 1.5C2.7 1.5 3 1.8 3 2.25C3 2.7 2.7 3 2.25 3Z" transform="translate(18.75 8.75049)" fill="#8C0B51"/>
</svg>
