<svg width="19" height="18" viewBox="0 0 19 18" fill="none" xmlns="http://www.w3.org/2000/svg">
<path d="M16 12C15 12 14.1 12.5 13.5 13.3L5.9 9.79999C6 9.49999 6 9.3 6 9C6 8.7 6 8.50001 5.9 8.20001L13.5 4.70001C14 5.50001 14.9 6 16 6C17.7 6 19 4.7 19 3C19 1.3 17.7 0 16 0C14.3 0 13 1.3 13 3C13 3.3 13 3.49999 13.1 3.79999L5.5 7.29999C4.9 6.49999 4 6 3 6C1.3 6 0 7.3 0 9C0 10.7 1.3 12 3 12C4 12 4.9 11.5 5.5 10.7L13.1 14.2C13 14.5 13 14.7 13 15C13 16.7 14.3 18 16 18C17.7 18 19 16.7 19 15C19 13.3 17.7 12 16 12ZM14 3C14 1.9 14.9 1 16 1C17.1 1 18 1.9 18 3C18 4.1 17.1 5 16 5C15.4 5 14.8 4.69999 14.5 4.29999C14.3 3.99999 14.1 3.69999 14.1 3.39999C14 3.19999 14 3.1 14 3ZM3 11C1.9 11 1 10.1 1 9C1 7.9 1.9 7 3 7C3.6 7 4.2 7.30001 4.5 7.70001C4.7 8.00001 4.9 8.30001 4.9 8.60001C4.9 8.70001 4.9 8.8 4.9 9C4.9 9.2 4.9 9.19999 4.9 9.39999C4.8 9.69999 4.7 9.99999 4.5 10.3C4.2 10.7 3.6 11 3 11ZM16 17C14.9 17 14 16.1 14 15C14 14.9 14 14.8 14 14.6C14.1 14.3 14.2 14 14.4 13.7C14.8 13.3 15.3 13 15.9 13C17 13 17.9 13.9 17.9 15C17.9 16.1 17.1 17 16 17Z" fill="#9498B5" style="fill:var(--color,#9498B5)"/>
</svg>
