<svg width="20" height="20" viewBox="0 0 20 20" fill="none" xmlns="http://www.w3.org/2000/svg">
<path d="M7 8.16667H1.16667C0.466667 8.16667 0 7.7 0 7V1.16667C0 0.466667 0.466667 0 1.16667 0H7C7.7 0 8.16667 0.466667 8.16667 1.16667V7C8.16667 7.7 7.7 8.16667 7 8.16667Z" transform="translate(0.666016 0.66748)"
      fill="#797E90"
      style="fill:var(--color,#797E90)"/>
<path d="M7 8.16667H1.16667C0.466667 8.16667 0 7.7 0 7V1.16667C0 0.466667 0.466667 0 1.16667 0H7C7.7 0 8.16667 0.466667 8.16667 1.16667V7C8.16667 7.7 7.7 8.16667 7 8.16667Z" transform="translate(11.166 0.66748)" fill="#797E90" style="fill:var(--color,#797E90)"/>
<path d="M7 8.16667H1.16667C0.466667 8.16667 0 7.7 0 7V1.16667C0 0.466667 0.466667 0 1.16667 0H7C7.7 0 8.16667 0.466667 8.16667 1.16667V7C8.16667 7.7 7.7 8.16667 7 8.16667Z" transform="translate(0.666016 11.1675)" fill="#797E90" style="fill:var(--color,#797E90)"/>
<path d="M7 8.16667H1.16667C0.466667 8.16667 0 7.7 0 7V1.16667C0 0.466667 0.466667 0 1.16667 0H7C7.7 0 8.16667 0.466667 8.16667 1.16667V7C8.16667 7.7 7.7 8.16667 7 8.16667Z" transform="translate(11.166 11.1675)" fill="#797E90" style="fill:var(--color,#797E90)"/>
</svg>
