<svg width="22" height="24" viewBox="0 0 22 24" fill="none" xmlns="http://www.w3.org/2000/svg">
<path d="M4.96923 9.93846C7.71538 9.93846 9.93846 7.71538 9.93846 4.96923C9.93846 2.22308 7.71538 9.9769e-07 4.96923 9.9769e-07C2.22308 9.9769e-07 -2.49423e-07 2.22308 -2.49423e-07 4.96923C-2.49423e-07 7.71538 2.22308 9.93846 4.96923 9.93846ZM4.96923 1.43846C6.93077 1.43846 8.63077 3.00769 8.63077 5.1C8.63077 7.06154 7.06154 8.76154 4.96923 8.76154C2.87692 8.76154 1.30769 7.19231 1.30769 5.1C1.30769 3.00769 3.00769 1.43846 4.96923 1.43846Z" transform="translate(6.0332 0.279297)" fill="#A2A7B5"/>
<path d="M21.0494 7.84616C19.7417 3.13847 15.4263 -9.9769e-07 10.5878 -9.9769e-07C5.74937 -9.9769e-07 1.43398 3.26923 0.12629 7.84616C-0.135249 8.89231 -0.00447932 9.93846 0.649367 10.7231C1.30321 11.5077 2.2186 12.0308 3.26475 12.0308H17.7801C18.8263 12.0308 19.7417 11.5077 20.3955 10.7231C21.1801 9.93846 21.3109 8.76154 21.0494 7.84616ZM19.4801 9.93846C19.0878 10.4615 18.5648 10.7231 17.9109 10.7231H3.26475C2.61091 10.7231 2.08783 10.4615 1.69552 9.93846C1.30321 9.41539 1.17244 8.76154 1.43398 8.23846C2.61091 4.18461 6.40321 1.30769 10.5878 1.30769C14.7724 1.30769 18.5648 4.18461 19.7417 8.23846C20.0032 8.76154 19.8724 9.41539 19.4801 9.93846Z" transform="translate(0.412109 11.4692)" fill="#A2A7B5"/>
</svg>
