<svg width="16" height="16" viewBox="0 0 16 16" fill="none" xmlns="http://www.w3.org/2000/svg">
<path d="M3.36842 6.73684C5.27719 6.73684 6.73684 5.27719 6.73684 3.36842C6.73684 1.45965 5.27719 0 3.36842 0C1.45965 0 0 1.45965 0 3.36842C0 5.27719 1.45965 6.73684 3.36842 6.73684ZM3.36842 2.24561C4.04211 2.24561 4.49123 2.69474 4.49123 3.36842C4.49123 4.04211 4.04211 4.49123 3.36842 4.49123C2.69474 4.49123 2.24561 4.04211 2.24561 3.36842C2.24561 2.69474 2.69474 2.24561 3.36842 2.24561Z" transform="translate(0.140625 0.140625)" fill="white"/>
<path d="M15.3825 0.336841C14.9333 -0.112282 14.2596 -0.112282 13.8105 0.336841L0.336842 13.8105C-0.11228 14.2597 -0.11228 14.9333 0.336842 15.3825C0.561404 15.607 0.785965 15.7193 1.12281 15.7193C1.45965 15.7193 1.68421 15.607 1.90877 15.3825L15.3825 1.90877C15.8316 1.45965 15.8316 0.785964 15.3825 0.336841Z" transform="translate(0.140625 0.140625)" fill="white"/>
<path d="M3.36842 0C1.45965 0 0 1.45965 0 3.36842C0 5.27719 1.45965 6.73684 3.36842 6.73684C5.27719 6.73684 6.73684 5.27719 6.73684 3.36842C6.73684 1.45965 5.27719 0 3.36842 0ZM3.36842 4.49123C2.69474 4.49123 2.24561 4.04211 2.24561 3.36842C2.24561 2.69474 2.69474 2.24561 3.36842 2.24561C4.04211 2.24561 4.49123 2.69474 4.49123 3.36842C4.49123 4.04211 4.04211 4.49123 3.36842 4.49123Z" transform="translate(9.12305 9.12305)" fill="white"/>
</svg>
