<svg width="14" height="20" viewBox="0 0 14 20" fill="none" xmlns="http://www.w3.org/2000/svg">
<path d="M6.9 0C3.1 0 6.10352e-06 3.1 6.10352e-06 6.9C6.10352e-06 13.5 6.3 18.6 6.6 18.9L6.9 19.2L7.2 18.9C7.5 18.7 13.8 13.5 13.8 6.9C13.8 3.1 10.7 0 6.9 0ZM6.9 17.8C5.6 16.7 1.00001 12.2 1.00001 6.9C1.00001 3.6 3.7 1 6.9 1C10.1 1 12.8 3.7 12.8 6.9C12.8 12.2 8.2 16.7 6.9 17.8Z" transform="translate(0.0996094 0.5)" fill="#8D044E"/>
<path d="M3.1 1.52588e-06C1.4 1.52588e-06 -6.10352e-06 1.4 -6.10352e-06 3.1C-6.10352e-06 4.8 1.4 6.2 3.1 6.2C4.8 6.2 6.20001 4.8 6.20001 3.1C6.20001 1.4 4.8 1.52588e-06 3.1 1.52588e-06ZM3.1 5.1C2 5.1 0.999994 4.2 0.999994 3C0.999994 1.8 1.9 0.899999 3.1 0.899999C4.3 0.899999 5.20001 1.8 5.20001 3C5.20001 4.2 4.2 5.1 3.1 5.1Z" transform="translate(3.89844 4.3999)" fill="#8D044E"/>
</svg>
