<svg width="17" height="21" viewBox="0 0 17 21" version="1.1" xmlns="http://www.w3.org/2000/svg" xmlns:xlink="http://www.w3.org/1999/xlink">
<title>Vector</title>
<desc>Created using Figma</desc>
<g id="Canvas" transform="translate(20502 -6965)">
<g id="Vector">
<use xlink:href="#path0_fill" transform="translate(-20501.8 6965.91)" fill="#FFFFFF"/>
</g>
</g>
<defs>
<path id="path0_fill" d="M 9.28229 0.000205171C 9.27302 6.23592e-05 9.26365 0 9.25439 0L 2.55246 0C 1.25416 0 0.299976 1.21776 0.610507 2.47837L 0.854493 3.46883C 0.893052 3.62537 0.912544 3.78599 0.912544 3.9472L 0.912544 17.4987C 0.912544 18.6032 1.80797 19.4987 2.91254 19.4987L 3.04751 19.4987C 4.15208 19.4987 5.04751 18.6032 5.04751 17.4987L 5.04751 16.186C 5.04751 15.0815 5.94294 14.186 7.04751 14.186L 9.26829 14.186C 13.4606 14.186 16.512 11.4006 16.512 7.17908C 16.5117 2.87656 13.4103 0.0638327 9.28229 0.000205171ZM 9.35378 10.137L 7.04751 10.137C 5.94294 10.137 5.04751 9.24157 5.04751 8.137L 5.04751 6.07779C 5.04751 4.97322 5.94294 4.07779 7.04751 4.07779L 9.35378 4.07779C 11.0934 4.07779 12.3482 5.39884 12.3482 7.09318C 12.2342 8.90216 11.0934 10.137 9.35378 10.137Z"/>
</defs>
</svg>
