<svg width="20" height="17" viewBox="0 0 20 17" fill="none" xmlns="http://www.w3.org/2000/svg">
<path d="M4.58333 0C2.01667 0 0 2.01667 0 4.58333C0 7.15 2.01667 9.16667 4.58333 9.16667C7.15 9.16667 9.16667 7.15 9.16667 4.58333C9.16667 2.01667 7.15 0 4.58333 0ZM4.58333 8.25C2.56667 8.25 0.916667 6.6 0.916667 4.58333C0.916667 2.56667 2.56667 0.916667 4.58333 0.916667C6.6 0.916667 8.25 2.56667 8.25 4.58333C8.25 6.6 6.6 8.25 4.58333 8.25Z" transform="translate(5.41602 5.3335)" fill="#A7ABB7" fill-opacity="0.55"/>
<path d="M16.5 2.75H14.3917L14.025 1.375C13.8417 0.55 13.1083 0 12.2833 0H5.95833C5.13333 0 4.4 0.55 4.21667 1.375L3.85 2.75H1.83333C0.825 2.75 0 3.575 0 4.58333V13.75C0 14.7583 0.825 15.5833 1.83333 15.5833H16.5C17.5083 15.5833 18.3333 14.7583 18.3333 13.75V4.58333C18.3333 3.575 17.5083 2.75 16.5 2.75ZM5.13333 1.65C5.225 1.28333 5.59167 0.916667 6.05 0.916667H12.375C12.8333 0.916667 13.2 1.19167 13.2917 1.65L13.5667 2.75H4.95L5.13333 1.65ZM17.4167 13.75C17.4167 14.3 17.05 14.6667 16.5 14.6667H1.83333C1.28333 14.6667 0.916667 14.3 0.916667 13.75V4.58333C0.916667 4.03333 1.28333 3.66667 1.83333 3.66667H3.66667H14.6667H16.5C17.05 3.66667 17.4167 4.03333 17.4167 4.58333V13.75Z" transform="translate(0.833984 0.75)" fill="#A7ABB7" fill-opacity="0.55"/>
</svg>
