<svg width="20" height="19" viewBox="0 0 20 19" fill="none" xmlns="http://www.w3.org/2000/svg">
<path d="M9.5 17.9L9.3 17.8C8.9 17.6 0 14 0 6.5C0 6.4 0 6.4 0 6.3C0 6.2 0 6.1 0 6.1C0 5.2 0.200001 4.3 0.700001 3.4C1.7 1.2 3.7 -1.52588e-06 6.2 -1.52588e-06C7.4 -1.52588e-06 8.6 0.399998 9.6 0.999999C10.6 0.299998 11.8 -1.52588e-06 13 -1.52588e-06C15.5 -1.52588e-06 17.5 1.3 18.5 3.4C18.9 4.3 19.1 5.2 19.1 6.1V6.3C19.1 6.4 19.1 6.5 19.1 6.5C19.1 14 10.2 17.7 9.8 17.8L9.5 17.9ZM6.1 0.999999C4 0.999999 2.3 2 1.5 3.8C1.1 4.6 0.900001 5.3 0.900001 6.1C0.900001 6.2 0.900001 6.2 0.900001 6.3C0.900001 6.4 0.900001 6.4 0.900001 6.5C0.900001 12.8 8.1 16.3 9.4 16.9C10.7 16.3 17.9 12.8 17.9 6.6C17.9 6.5 17.9 6.4 17.9 6.4V6.3C17.9 5.5 17.7 4.8 17.4 4C16.6 2.2 14.9 1.1 12.8 1.1C11.7 1.1 10.6 1.5 9.7 2.1L9.5 2.2L9.2 2C8.3 1.3 7.2 0.999999 6.1 0.999999Z" transform="translate(0.5 0.600098)" fill="#9498B5" style="fill:var(--color,#9498B5)"/>
</svg>
