<svg width="22" height="22" viewBox="0 0 22 22" fill="none" xmlns="http://www.w3.org/2000/svg">
<path d="M7 12.8333C7 11.3167 6.06667 10.0333 4.66667 9.56667V1.16667C4.66667 0.466667 4.2 0 3.5 0C2.8 0 2.33333 0.466667 2.33333 1.16667V9.56667C0.933333 10.0333 0 11.3167 0 12.8333C0 14.35 1.05 15.6333 2.33333 16.1C2.33333 16.2167 2.33333 16.2167 2.33333 16.3333V19.8333C2.33333 20.5333 2.8 21 3.5 21C4.2 21 4.66667 20.5333 4.66667 19.8333V16.3333C4.66667 16.2167 4.66667 16.2167 4.66667 16.1C5.95 15.6333 7 14.35 7 12.8333ZM3.5 14C2.8 14 2.33333 13.5333 2.33333 12.8333C2.33333 12.1333 2.8 11.6667 3.5 11.6667C4.2 11.6667 4.66667 12.1333 4.66667 12.8333C4.66667 13.5333 4.2 14 3.5 14Z" transform="translate(7.5 21.5) rotate(180)" fill="#797E90" style="fill:var(--color,#797E90)"/>
<path d="M4.66667 11.9V1.16667C4.66667 0.466667 4.2 0 3.5 0C2.8 0 2.33333 0.466667 2.33333 1.16667V11.9C0.933333 12.3667 0 13.65 0 15.1667C0 16.6833 1.05 17.9667 2.33333 18.4333C2.33333 18.55 2.33333 18.55 2.33333 18.6667V19.8333C2.33333 20.5333 2.8 21 3.5 21C4.2 21 4.66667 20.5333 4.66667 19.8333V18.6667C4.66667 18.55 4.66667 18.55 4.66667 18.4333C6.06667 17.9667 7 16.6833 7 15.1667C7 13.65 6.06667 12.3667 4.66667 11.9ZM3.5 16.3333C2.8 16.3333 2.33333 15.8667 2.33333 15.1667C2.33333 14.4667 2.8 14 3.5 14C4.2 14 4.66667 14.4667 4.66667 15.1667C4.66667 15.8667 4.2 16.3333 3.5 16.3333Z" transform="translate(21.5 21.5) rotate(180)" fill="#797E90" style="fill:var(--color,#797E90)"/>
<path d="M7 7C7 5.48333 6.06667 4.2 4.66667 3.73333V1.16667C4.66667 0.466667 4.2 0 3.5 0C2.8 0 2.33333 0.466667 2.33333 1.16667V3.73333C0.933333 4.2 0 5.48333 0 7C0 8.51667 1.05 9.8 2.33333 10.2667C2.33333 10.3833 2.33333 10.3833 2.33333 10.5V19.8333C2.33333 20.5333 2.8 21 3.5 21C4.2 21 4.66667 20.5333 4.66667 19.8333V10.5C4.66667 10.3833 4.66667 10.3833 4.66667 10.2667C5.95 9.8 7 8.51667 7 7ZM3.5 8.16667C2.8 8.16667 2.33333 7.7 2.33333 7C2.33333 6.3 2.8 5.83333 3.5 5.83333C4.2 5.83333 4.66667 6.3 4.66667 7C4.66667 7.7 4.2 8.16667 3.5 8.16667Z" transform="translate(14.5 21.5) rotate(180)" fill="#797E90" style="fill:var(--color,#797E90)"/>
</svg>
