<svg width="21" height="19" viewBox="0 0 21 19" fill="none" xmlns="http://www.w3.org/2000/svg">
<path d="M19.4833 12.7167C19.0167 11.9 18.2 11.55 17.0333 11.55C16.2167 11.55 14.9333 11.55 13.3 10.7333C12.1333 10.15 7.93333 3.96667 5.48333 0.233333C5.36667 0.116667 5.13333 0 5.01667 0C4.66667 0 2.1 1.39077e-07 1.05 1.05C1.80801e-06 2.1 0 3.96667 0 4.08333L1.16667 18.0833C1.16667 18.4333 1.4 18.6667 1.75 18.6667H4.08333C4.2 18.6667 4.43334 18.55 4.55 18.55C4.66667 18.4333 4.66667 18.3167 4.66667 18.0833V9.91667C5.6 10.7333 6.53333 11.55 7.23334 12.4833C8.63334 14.1167 9.68333 16.2167 10.5 17.7333L10.7333 18.2C10.85 18.4333 11.0833 18.55 11.2 18.55H17.85C18.0833 18.55 18.2 18.4333 18.3167 18.3167C18.6667 17.9667 20.5333 14.5833 19.4833 12.7167ZM5.01667 8.75C4.78333 8.51667 4.43333 8.4 4.08333 8.51667C3.73333 8.63333 3.5 8.98333 3.38334 9.33333V17.5H2.21667L1.16667 4.08333C1.16667 3.61667 1.28333 2.45 1.86667 1.86667C2.33333 1.4 3.73333 1.16667 4.66667 1.16667C6.06667 3.26667 10.9667 10.85 12.7167 11.7833C14.5833 12.7167 15.9833 12.7167 16.9167 12.7167C18.0833 12.7167 18.3167 13.1833 18.4333 13.3C18.6667 13.7667 18.6667 14.4667 18.4333 15.1667H10.3833C9.8 14 8.98334 12.8333 8.05 11.7833C7.23334 10.7333 6.18333 9.68333 5.01667 8.75ZM17.6167 17.5H11.6667L11.55 17.2667C11.4333 16.9167 11.2 16.5667 11.0833 16.3333H18.0833C17.9667 16.8 17.7333 17.15 17.6167 17.5Z" transform="translate(0.25 0.0834961)" fill="#8E0B56"/>
</svg>
