<svg width="14" height="13" viewBox="0 0 14 13" fill="none" xmlns="http://www.w3.org/2000/svg">
<path d="M6.66667 12.6L6.4 12.5333C6.13333 12.4 0 9.86667 0 4.66667C0 4.6 0 4.53333 0 4.53333C0 4.53333 0 4.46667 0 4.4C0 3.73333 0.133334 3.06667 0.466667 2.46667C1.2 0.933334 2.6 -6.35783e-08 4.4 -6.35783e-08C5.2 -6.35783e-08 6 0.2 6.66667 0.6C7.33333 0.2 8.13333 -6.35783e-08 8.93333 -6.35783e-08C10.7333 -6.35783e-08 12.2 0.933334 12.8667 2.46667C13.2 3.06667 13.3333 3.73333 13.3333 4.4V4.53333C13.3333 4.6 13.3333 4.6 13.3333 4.66667C13.3333 9.86667 7.2 12.4 6.93333 12.5333L6.66667 12.6ZM4.4 1.33333C3.13333 1.33333 2.13333 1.93333 1.66667 3.06667C1.46667 3.46667 1.33333 3.93333 1.33333 4.4V4.46667C1.33333 4.53333 1.33333 4.6 1.33333 4.66667C1.33333 8.46667 5.6 10.6667 6.66667 11.2C7.73333 10.6667 12 8.46667 12 4.66667C12 4.6 12 4.6 12 4.53333V4.46667V4.33333C12 3.86667 11.8667 3.46667 11.6667 3C11.1333 1.86667 10.2 1.26667 8.93333 1.26667C8.26667 1.26667 7.6 1.46667 7.06666 1.86667L6.66667 2.26667L6.26667 1.93333C5.73333 1.53333 5.06666 1.33333 4.4 1.33333Z" transform="translate(0.337891 0.0688477)" fill="#242D4A"/>
</svg>
