<svg width="12" height="14" viewBox="0 0 12 14" fill="none" xmlns="http://www.w3.org/2000/svg">
<path d="M2.86667 5.66667C4.4 5.66667 5.73333 4.4 5.73333 2.8C5.73333 1.2 4.4 -3.17891e-08 2.86667 -3.17891e-08C1.33333 -3.17891e-08 -1.27157e-07 1.26667 -1.27157e-07 2.86667C-1.27157e-07 4.46667 1.33333 5.66667 2.86667 5.66667ZM2.86667 1.33333C3.66667 1.33333 4.4 2 4.4 2.86667C4.4 3.73333 3.73333 4.4 2.86667 4.4C2 4.4 1.33333 3.73333 1.33333 2.86667C1.33333 2 2.06667 1.33333 2.86667 1.33333Z" transform="translate(3.13477 0.538086)" fill="#242D4A"/>
<path d="M11.3957 4.26667C10.6624 1.73333 8.32907 -1.27157e-07 5.72907 -1.27157e-07C3.12907 -1.27157e-07 0.795739 1.73333 0.0624055 4.26667C-0.0709278 4.93333 -0.00426114 5.53333 0.395739 6.06667C0.795739 6.6 1.39574 6.86667 1.99574 6.86667H9.39574C10.0624 6.86667 10.5957 6.6 10.9957 6.06667C11.3957 5.53333 11.5291 4.93333 11.3957 4.26667ZM9.99574 5.26667C9.8624 5.46667 9.6624 5.53333 9.4624 5.53333H1.99574C1.79574 5.53333 1.59574 5.46667 1.46241 5.26667C1.32907 5.06667 1.32907 4.86667 1.32907 4.66667C1.86241 2.73333 3.6624 1.4 5.72907 1.4C7.79574 1.4 9.52907 2.73333 10.1291 4.66667C10.1291 4.86667 10.1291 5.06667 9.99574 5.26667Z" transform="translate(0.269531 6.80566)" fill="#242D4A"/>
</svg>
