<svg width="21" height="20" viewBox="0 0 21 20" fill="none" xmlns="http://www.w3.org/2000/svg">
<path d="M17.9893 6.06667C17.8726 5.25 17.056 4.66667 16.2393 4.66667H14.7226L14.3726 2.33333C14.1393 1.05 12.9726 0 11.4559 0H8.53928C7.02261 0 5.85594 1.05 5.62261 2.33333L5.27261 4.66667H3.75594C2.93928 4.66667 2.12261 5.25 2.00594 6.06667L0.0226135 16.6833C-0.0940532 17.5 0.255945 18.3167 0.722612 18.9C1.30595 19.4833 2.12261 19.8333 2.93928 19.8333H17.0559C17.8726 19.8333 18.6893 19.4833 19.2726 18.9C19.8559 18.3167 20.0893 17.5 19.9726 16.6833L17.9893 6.06667ZM6.90595 2.45C7.02262 1.63333 7.72262 1.16667 8.65595 1.16667H11.5726C12.506 1.16667 13.206 1.75 13.3226 2.45L13.6726 4.66667H6.67261L6.90595 2.45ZM3.28928 6.3C3.28928 6.06667 3.63928 5.83333 3.87261 5.83333H16.2393C16.5893 5.83333 16.8226 6.06667 16.8226 6.3L17.6393 10.5H2.47261L3.28928 6.3ZM18.3393 18.0833C17.9893 18.4333 17.5226 18.6667 16.9393 18.6667H3.05595C2.58928 18.6667 2.00595 18.4333 1.65595 18.0833C1.30595 17.7333 1.18928 17.2667 1.18928 16.8L2.12261 11.6667H17.6393L18.5726 16.8C18.806 17.2667 18.6893 17.7333 18.3393 18.0833Z" transform="translate(0.943359 0.0834961)" fill="#8E0B56"/>
</svg>
