<svg width="10" height="10" viewBox="0 0 10 10" fill="none" xmlns="http://www.w3.org/2000/svg">
<path d="M2 4C3.13333 4 4 3.13333 4 2C4 0.866667 3.13333 0 2 0C0.866667 0 0 0.866667 0 2C0 3.13333 0.866667 4 2 4ZM2 1.33333C2.4 1.33333 2.66667 1.6 2.66667 2C2.66667 2.4 2.4 2.66667 2 2.66667C1.6 2.66667 1.33333 2.4 1.33333 2C1.33333 1.6 1.6 1.33333 2 1.33333Z" transform="translate(0.337891 0.337402)" fill="#242D4A"/>
<path d="M9.13333 0.2C8.86667 -0.0666672 8.46667 -0.0666672 8.2 0.2L0.2 8.2C-0.0666666 8.46667 -0.0666666 8.86666 0.2 9.13333C0.333333 9.26667 0.466667 9.33333 0.666667 9.33333C0.866667 9.33333 1 9.26667 1.13333 9.13333L9.13333 1.13333C9.4 0.866667 9.4 0.466666 9.13333 0.2Z" transform="translate(0.337891 0.337402)" fill="#242D4A"/>
<path d="M2 0C0.866667 0 0 0.866667 0 2C0 3.13333 0.866667 4 2 4C3.13333 4 4 3.13333 4 2C4 0.866667 3.13333 0 2 0ZM2 2.66667C1.6 2.66667 1.33333 2.4 1.33333 2C1.33333 1.6 1.6 1.33333 2 1.33333C2.4 1.33333 2.66667 1.6 2.66667 2C2.66667 2.4 2.4 2.66667 2 2.66667Z" transform="translate(5.66211 5.66211)" fill="#242D4A"/>
</svg>
