<svg width="24" height="18" viewBox="0 0 24 18" fill="none" xmlns="http://www.w3.org/2000/svg">
<path d="M17.3833 0.583333C16.9167 0.233334 16.2167 2.22524e-07 15.6333 2.22524e-07H13.5333L13.3 0.233333C12.4833 1.28333 11.3167 1.28333 11.2 1.28333C9.91667 1.28333 9.10001 0.35 9.10001 0.233333L8.86666 2.22524e-07H6.76668C6.18335 2.22524e-07 5.48335 0.233334 5.01668 0.583333L-7.12077e-06 4.31667L1.63332 9.21667L4.78333 8.16667V16.9167H17.6167V8.16667L20.7667 9.21667L22.4 4.31667L17.3833 0.583333ZM1.40001 4.66667L2.68335 3.61667L3.61667 7.11667L2.45 7.58333L1.40001 4.66667ZM16.45 6.41667V15.75H5.95V6.41667L4.66666 6.88333L3.73334 2.91667L5.71665 1.4C6.06665 1.16667 6.41668 1.05 6.76668 1.05H8.28333C8.75 1.51667 9.68333 2.33333 11.2 2.33333C11.55 2.33333 12.95 2.21667 14.1167 1.05H15.6333C15.9833 1.05 16.3333 1.16667 16.6833 1.4L18.6667 2.91667L17.7333 6.88333L16.45 6.41667ZM20.0667 7.7L18.9 7.23333L19.8333 3.73333L21.1167 4.78333L20.0667 7.7Z" transform="translate(0.798828 0.600098)" fill="#8E0B56"/>
</svg>
