<svg width="18" height="12" viewBox="0 0 18 12" fill="none" xmlns="http://www.w3.org/2000/svg">
<path d="M9.1 0C8.98334 0 8.86667 0 8.75 0C5.6 1.16667 0.7 1.16667 0.583333 1.16667C0.233333 1.16667 0 1.4 0 1.75V9.91667C0 10.2667 0.233333 10.5 0.583333 10.5H16.9167C17.2667 10.5 17.5 10.2667 17.5 9.91667V6.41667C17.5 2.33333 13.0667 1.16667 9.1 0ZM8.98333 1.16667C13.3 2.33333 16.3333 3.5 16.3333 6.41667V7H1.16667V2.33333C2.56667 2.33333 6.18333 2.1 8.98333 1.16667ZM1.16667 9.33333V8.16667H16.3333V9.33333H1.16667Z" transform="translate(0.25 0.75)" fill="#8E0B56"/>
<path d="M0.58334 1.16667C0.905506 1.16667 1.16667 0.905499 1.16667 0.583333C1.16667 0.261167 0.905506 0 0.58334 0C0.261174 0 7.12077e-06 0.261167 7.12077e-06 0.583333C7.12077e-06 0.905499 0.261174 1.16667 0.58334 1.16667Z" transform="translate(10.2832 4.25)" fill="#8E0B56"/>
<path d="M0.583337 1.16667C0.905503 1.16667 1.16665 0.905499 1.16665 0.583333C1.16665 0.261167 0.905503 0 0.583337 0C0.261171 0 3.56038e-06 0.261167 3.56038e-06 0.583333C3.56038e-06 0.905499 0.261171 1.16667 0.583337 1.16667Z" transform="translate(12.8496 5.4165)" fill="#8E0B56"/>
</svg>
