<svg width="12" height="24" viewBox="0 0 12 24" fill="none" xmlns="http://www.w3.org/2000/svg">
<path d="M8.04999 4.66667C8.16666 4.43333 8.16667 4.31667 8.16667 4.08333C8.16667 3.26667 7.7 2.68333 7 2.45V1.75C7 0.816667 6.18333 0 5.25 0C4.31667 0 3.5 0.816667 3.5 1.75V2.45C2.8 2.68333 2.33333 3.38333 2.33333 4.08333C2.33333 4.31667 2.33334 4.55 2.45001 4.66667C1.05001 4.9 0 6.06667 0 7.58333V19.25C0 20.8833 1.28333 22.1667 2.91667 22.1667H7.58333C9.21667 22.1667 10.5 20.8833 10.5 19.25V7.58333C10.5 6.18333 9.44999 4.9 8.04999 4.66667ZM5.25 1.16667C5.6 1.16667 5.83333 1.4 5.83333 1.75V2.33333H4.66667V1.75C4.66667 1.4 4.9 1.16667 5.25 1.16667ZM4.08333 3.5H6.41667C6.76667 3.5 7 3.73333 7 4.08333C7 4.43333 6.76667 4.66667 6.41667 4.66667H4.08333C3.73333 4.66667 3.5 4.43333 3.5 4.08333C3.5 3.73333 3.73333 3.5 4.08333 3.5ZM9.33333 19.25C9.33333 20.1833 8.51667 21 7.58333 21H2.91667C1.98333 21 1.16667 20.1833 1.16667 19.25V15.1667H5.25C5.6 15.1667 5.83333 14.9333 5.83333 14.5833C5.83333 14.2333 5.6 14 5.25 14H1.16667V12.8333H5.25C5.6 12.8333 5.83333 12.6 5.83333 12.25C5.83333 11.9 5.6 11.6667 5.25 11.6667H1.16667V10.5H5.25C5.6 10.5 5.83333 10.2667 5.83333 9.91667C5.83333 9.56667 5.6 9.33333 5.25 9.33333H1.16667V7.58333C1.16667 6.65 1.98333 5.83333 2.91667 5.83333H4.08333H6.41667H7.58333C8.51667 5.83333 9.33333 6.65 9.33333 7.58333V19.25Z" transform="translate(0.75 0.916504)" fill="#8E0B56"/>
</svg>
