<svg width="24" height="21" viewBox="0 0 24 21" fill="none" xmlns="http://www.w3.org/2000/svg">
<path d="M0.700007 1.16667C1.08661 1.16667 1.4 0.9055 1.4 0.583333C1.4 0.261167 1.08661 0 0.700007 0C0.313408 0 0 0.261167 0 0.583333C0 0.9055 0.313408 1.16667 0.700007 1.16667Z" transform="translate(7.33203 8.6001)" fill="#8E0B56"/>
<path d="M0.699993 1.16667C1.08659 1.16667 1.4 0.9055 1.4 0.583333C1.4 0.261167 1.08659 0 0.699993 0C0.313393 0 3.56038e-06 0.261167 3.56038e-06 0.583333C3.56038e-06 0.9055 0.313393 1.16667 0.699993 1.16667Z" transform="translate(15.2656 8.6001)" fill="#8E0B56"/>
<path d="M22.1667 3.96667C22.1667 1.75 20.3 0 18.0833 0C16.3333 0 14.8167 0.933333 14.2333 2.21667C13.3 1.86667 12.1333 1.75 11.0833 1.75C10.0333 1.75 8.86667 1.98333 7.93334 2.33333C7.35 1.05 5.83333 0.116667 4.08333 0.116667C1.86667 0.116667 0 1.86667 0 4.08333C0 5.6 0.816659 7.35 2.21666 8.05C1.86666 8.98333 1.75 9.91667 1.75 10.85C1.75 15.8667 5.95 19.95 11.0833 19.95C16.2167 19.95 20.4167 15.8667 20.4167 10.85C20.4167 9.91667 20.3 8.86667 19.95 8.05C21.35 7.23333 22.1667 5.48333 22.1667 3.96667ZM2.68334 6.88333C1.75 6.41667 1.16667 5.13333 1.16667 3.96667C1.16667 2.45 2.45 1.16667 4.08333 1.16667C5.25 1.16667 6.41666 1.75 6.88333 2.68333C6.53333 2.8 6.30001 3.03333 5.95001 3.26667C4.66667 4.08333 3.61666 5.25 2.79999 6.53333C2.79999 6.65 2.68334 6.76667 2.68334 6.88333ZM11.7833 12.8333C11.7833 13.1833 11.4333 13.5333 11.0833 13.5333C10.7333 13.5333 10.3833 13.1833 10.3833 12.8333C10.3833 12.4833 10.7333 12.1333 11.0833 12.1333C11.4333 12.1333 11.7833 12.4833 11.7833 12.8333ZM11.0833 14.7C12.1333 14.7 12.95 13.8833 12.95 12.8333C12.95 12.7167 12.95 12.4833 12.95 12.3667C14.5833 12.8333 15.75 14 15.75 15.2833C15.75 17.0333 13.65 18.4333 11.0833 18.4333C8.51667 18.4333 6.41667 17.0333 6.41667 15.2833C6.41667 14 7.58333 12.8333 9.21666 12.3667C9.21666 12.4833 9.21666 12.6 9.21666 12.8333C9.21666 13.8833 10.0333 14.7 11.0833 14.7ZM16.6833 16.5667C16.8 16.2167 16.9167 15.75 16.9167 15.4C16.9167 13.0667 14.35 11.0833 11.0833 11.0833C7.81667 11.0833 5.25 13.0667 5.25 15.4C5.25 15.8667 5.36666 16.2167 5.48333 16.5667C3.85 15.1667 2.91667 13.0667 2.91667 10.85C2.91667 9.56667 3.26667 8.28333 3.85 7.11667C4.55 6.06667 5.48334 5.01667 6.53334 4.2C7.81667 3.38333 9.45 2.91667 11.0833 2.91667C12.7167 2.91667 14.35 3.38333 15.6333 4.2C16.6833 4.9 17.6167 5.95 18.3167 7.11667C18.9 8.16667 19.25 9.45 19.25 10.85C19.25 13.0667 18.2 15.05 16.6833 16.5667ZM19.4833 6.88333C19.3667 6.76667 19.3667 6.65 19.25 6.53333C18.55 5.25 17.5 4.08333 16.1 3.26667C15.75 3.03333 15.5167 2.91667 15.1667 2.68333C15.75 1.75 16.9167 1.16667 18.0833 1.16667C19.7167 1.16667 21 2.45 21 3.96667C21 5.13333 20.5333 6.3 19.4833 6.88333Z" transform="translate(0.917969 0.0834961)" fill="#8E0B56"/>
</svg>
