<svg width="24" height="13" viewBox="0 0 24 13" fill="none" xmlns="http://www.w3.org/2000/svg">
<path d="M17.85 4.66667C15.2833 4.08333 11.6667 3.26667 8.75 0.233333C8.63333 -2.26001e-07 8.4 0 8.28333 0C8.05 0 7.93333 0.116667 7.81667 0.35C5.83333 4.43333 1.05 2.45 0.816667 2.45C0.583333 2.33333 0.466667 2.45 0.233333 2.45C0.116667 2.56667 0 2.68333 0 2.91667V11.0833C0 11.4333 0.233333 11.6667 0.583333 11.6667H21.5833C21.9333 11.6667 22.1667 11.4333 22.1667 11.0833V7.58333C22.1667 5.71667 20.1833 5.25 17.85 4.66667ZM8.4 1.51667C11.4333 4.31667 14.9333 5.13333 17.5 5.71667C19.7167 6.18333 20.8833 6.53333 20.8833 7.46667V8.05H1.05V3.61667C3.26667 4.31667 6.65 4.43333 8.4 1.51667ZM1.16667 10.5V9.33333H21V10.5H1.16667Z" transform="translate(0.917969 0.75)" fill="#8E0B56"/>
</svg>
