<svg width="20" height="20" viewBox="0 0 20 20" fill="none" xmlns="http://www.w3.org/2000/svg">
<path d="M9.91667 0C4.43333 0 0 4.43333 0 9.91667C0 15.4 4.43333 19.8333 9.91667 19.8333C15.4 19.8333 19.8333 15.4 19.8333 9.91667C19.8333 4.43333 15.4 0 9.91667 0ZM9.91667 18.6667C5.13333 18.6667 1.16667 14.7 1.16667 9.91667C1.16667 5.13333 5.13333 1.16667 9.91667 1.16667C14.7 1.16667 18.6667 5.13333 18.6667 9.91667C18.6667 14.7 14.7 18.6667 9.91667 18.6667Z" transform="translate(0.0820312 0.0834961)" fill="#8E0B56"/>
<path d="M5.25 4.66667H1.16667V0.583333C1.16667 0.233333 0.933333 0 0.583333 0C0.233333 0 0 0.233333 0 0.583333V5.25C0 5.6 0.233333 5.83333 0.583333 5.83333H5.25C5.6 5.83333 5.83333 5.6 5.83333 5.25C5.83333 4.9 5.6 4.66667 5.25 4.66667Z" transform="translate(9.41797 4.75)" fill="#8E0B56"/>
</svg>
