<svg width="21" height="21" viewBox="0 0 21 21" fill="none" xmlns="http://www.w3.org/2000/svg">
<path d="M19.8333 5.36667C19.8333 2.45 17.5 -5.5631e-08 14.5833 -5.5631e-08C12.25 -5.5631e-08 0.933326 2.33333 0.46666 2.33333C0.233326 2.33333 0 2.68333 0 2.91667V7.7C0 7.93333 0.233326 8.16667 0.46666 8.28333C0.81666 8.4 6.53335 9.56667 10.7333 10.15L9.56668 19.1333C9.56668 19.25 9.56665 19.4833 9.68332 19.6C9.79999 19.7167 9.91668 19.8333 10.15 19.8333H12.7167C12.95 19.8333 13.1833 19.7167 13.3 19.4833L17.3833 9.91667C18.7833 8.98333 19.8333 7.35 19.8333 5.36667ZM1.16667 3.5C1.63333 3.38333 2.21667 3.26667 3.03334 3.15V7.7C2.21667 7.58333 1.51667 7.46667 1.16667 7.35V3.5ZM12.3667 18.7833H10.85L11.9 10.5C13.0667 10.7333 14.1167 10.85 14.5833 10.85C15.05 10.85 15.4 10.7333 15.75 10.7333L12.3667 18.7833ZM14.5833 9.56667C13.1833 9.56667 7.81667 8.63334 4.20001 7.93333V2.91667C7.81667 2.21667 13.0667 1.28333 14.5833 1.28333C16.8 1.28333 18.6667 3.15 18.6667 5.48333C18.6667 7.81667 16.8 9.56667 14.5833 9.56667Z" transform="translate(0.5 0.433105)" fill="#8E0B56"/>
</svg>
