<svg width="22" height="20" viewBox="0 0 22 20" fill="none" xmlns="http://www.w3.org/2000/svg">
<path d="M20.5568 3.38333L18.1068 1.05C17.5235 0.35 16.5902 0 15.7735 0H12.3902H8.89017H5.50682C4.57349 0 3.75682 0.35 3.17349 1.05L0.606829 3.38333C-0.0931711 4.08333 -0.209834 5.01667 0.373499 5.83333L10.2902 19.6C10.4068 19.7167 10.5235 19.8333 10.7568 19.8333C10.9902 19.8333 11.1068 19.7167 11.2235 19.6L21.1402 5.83333C21.3735 5.01667 21.2568 4.08333 20.5568 3.38333ZM5.9735 6.53333H6.09016L9.4735 17.0333L1.19016 5.48333L5.9735 6.53333ZM7.3735 6.53333H13.6735L10.5235 16.1L7.3735 6.53333ZM14.8402 6.53333H14.9568L19.6235 5.48333L11.3402 17.0333L14.8402 6.53333ZM17.2902 1.86667L19.8568 4.2L14.9568 5.25L13.2068 1.05H15.7735C16.2402 1.16667 16.8235 1.4 17.2902 1.86667ZM11.9235 1.16667L13.6735 5.36667H7.49015L9.24015 1.16667H11.9235ZM3.8735 1.86667C4.2235 1.4 4.80684 1.16667 5.39017 1.16667H7.95683L6.20683 5.36667L1.19016 4.2L3.8735 1.86667Z" transform="translate(0.476562 0.0834961)" fill="#8E0B56"/>
</svg>
