<svg width="13" height="12" viewBox="0 0 13 12" fill="none" xmlns="http://www.w3.org/2000/svg">
<path d="M2.91897 12C2.71897 12 2.51897 11.9333 2.31897 11.8C1.98564 11.6 1.8523 11.2 1.91897 10.8L2.45231 7.73333L0.318974 5.6C0.0523073 5.33333 -0.081022 4.93333 0.0523114 4.53333C0.185645 4.13333 0.518976 3.86667 0.852309 3.86667L3.78564 3.4L5.11897 0.600001C5.31897 0.266668 5.65231 0 6.05231 0C6.45231 0 6.78564 0.200001 6.98564 0.600001L8.31897 3.4L11.2523 3.86667C11.6523 3.93333 11.919 4.2 12.0523 4.53333C12.1856 4.93333 12.0523 5.33333 11.7856 5.6L9.65231 7.73333L10.1856 10.8C10.2523 11.2 10.119 11.6 9.78564 11.8C9.45231 12 9.05231 12.0667 8.71898 11.8667L6.11897 10.4667L3.51898 11.8667C3.25231 11.9333 3.0523 12 2.91897 12ZM5.98564 9.06667C6.18564 9.06667 6.31897 9.13334 6.45231 9.2L8.65231 10.4L8.2523 7.8C8.18564 7.46667 8.31898 7.13333 8.51898 6.86667L10.319 5L7.85231 4.6C7.51898 4.53333 7.25231 4.33333 7.05231 4L5.98564 1.66667L4.91897 4C4.78564 4.33333 4.51897 4.53333 4.11897 4.6L1.65231 5L3.45231 6.86667C3.65231 7.13333 3.78564 7.46667 3.71898 7.8L3.31897 10.4L5.51898 9.2C5.65231 9.13334 5.78564 9.06667 5.98564 9.06667Z" transform="translate(0.0136719)" fill="#242D4A"/>
</svg>
