<svg width="14" height="14" viewBox="0 0 14 14" fill="none" xmlns="http://www.w3.org/2000/svg">
<path d="M12.2411 4.53333C11.8411 4.06667 11.2411 3.73333 10.5745 3.73333H9.7078L9.44114 1.86667C9.3078 0.8 8.37447 0 7.30781 0H5.44114C4.37447 0 3.44114 0.8 3.3078 1.86667L3.04114 3.73333H2.17447C1.5078 3.73333 0.907801 4 0.507801 4.53333C0.107801 5 -0.092197 5.66667 0.0411363 6.33333L0.974471 11.6C1.17447 12.6 2.04114 13.4 3.1078 13.4H9.57447C10.6411 13.4 11.5078 12.6667 11.7078 11.6L12.6411 6.33333C12.8411 5.66667 12.6411 5 12.2411 4.53333ZM4.64114 2.06667C4.7078 1.66667 5.04114 1.33333 5.44114 1.33333H7.30781C7.70781 1.33333 8.1078 1.66667 8.1078 2.06667L8.37447 3.73333H4.37447L4.64114 2.06667ZM11.3745 6.06667L10.4411 11.3333C10.3745 11.7333 10.0411 12 9.64114 12H3.17447C2.77447 12 2.44114 11.7333 2.37447 11.3333L1.44114 6.06667C1.37447 5.8 1.44114 5.6 1.64114 5.4C1.77447 5.2 2.04114 5.13333 2.3078 5.13333H2.97447L2.84113 5.86667C2.77447 6.2 3.04114 6.6 3.37447 6.6C3.7078 6.66667 4.1078 6.4 4.1078 6.06667L4.24114 5.13333H8.64114L8.77447 6.06667C8.84114 6.4 9.1078 6.66667 9.44114 6.66667H9.5078C9.84114 6.6 10.1078 6.26667 10.0411 5.93333L9.90781 5.2H10.5745C10.8411 5.2 11.0411 5.33333 11.2411 5.46667C11.3745 5.6 11.4411 5.8 11.3745 6.06667Z" transform="translate(0.626953 0.337402)" fill="#242D4A"/>
</svg>
